<svg xmlns="http://www.w3.org/2000/svg" viewBox="0 0 560 200" width="560" height="200">
  <title>Tela Vertical — logo horizontal</title>
  <g transform="translate(24,16)">
    <path fill="#FFFFFF" fill-rule="evenodd" d="M20,0 H84 A20,20 0 0 1 104,20 V148 A20,20 0 0 1 84,168 H20 A20,20 0 0 1 0,148 V20 A20,20 0 0 1 20,0 Z M52,44 L82,80 L66,80 L66,122 L38,122 L38,80 L22,80 Z"/>
    <rect x="34" y="138" width="36" height="6" rx="3" fill="#C0A062"/>
  </g>
  <g font-family="Poppins, Montserrat, 'Segoe UI', Arial, sans-serif">
    <text x="164" y="98" font-size="64" font-weight="600" fill="#FFFFFF" letter-spacing="1">TELA</text>
    <text x="166" y="148" font-size="34" font-weight="300" fill="#FFFFFF" letter-spacing="10">VERTICAL</text>
    <rect x="166" y="160" width="60" height="3" fill="#C0A062"/>
  </g>
</svg>